 <!DOCTYPE svg PUBLIC "-//W3C//DTD SVG 1.1//EN" "http://www.w3.org/Graphics/SVG/1.1/DTD/svg11.dtd">
<svg id="b5213985-2f77-45d9-933c-c6fba7b40dc5" data-name="Layer 1" xmlns="http://www.w3.org/2000/svg" width="865.76" height="682.89" viewBox="0 0 865.76 682.89">
<defs>
<style xmlns="http://www.w3.org/1999/xhtml">*, ::after, ::before { box-sizing: border-box; }
img, svg { vertical-align: middle; }
</style>
<style xmlns="http://www.w3.org/1999/xhtml">*, body, html { -webkit-font-smoothing: antialiased; }
img, svg { max-width: 100%; }
</style>
</defs>
<g id="bfd3a5c0-caa8-495f-aa83-ad7c3ae00c72" data-name="freepik--background-complete--inject-276">
<rect x="717.98" y="274.16" width="76.13" height="20.14" fill="#ebebeb"/>
<path d="M761.92,315.52v-5.36c0-3.49-.08-8.48-.14-14.78l.24.23-76.13.16.39-.39h0v20.11l-.38-.38,54.26.17,16,.11h.05l-15.93.1-54.52.17h-.43v-20.5h0l.4-.39,76.13.15h.23v.24c0,6.37-.09,11.41-.12,14.91V315A1.53,1.53,0,0,1,761.92,315.52Z" fill="#e0e0e0"/>
<rect x="162.59" y="32.67" width="76.13" height="20.14" fill="#ebebeb"/>
<path d="M206.51,74V68.66c0-3.47,0-8.48-.12-14.77l.23.23-76.13.14c.17-.17-.39.4.39-.37h0V74l-.37-.38,54.09.19,16,.09h5.46a2.81,2.81,0,0,1,.41,0H200.8L184.87,74l-54.52.18H130V53.92h0l.4-.39,76.13.16h.23v.23c0,6.35-.09,11.41-.13,14.91v4.9A1.14,1.14,0,0,1,206.51,74Z" fill="#e0e0e0"/>
<rect x="136.17" y="600.79" width="76.13" height="20.14" fill="#ebebeb"/>
<path d="M180.11,642.15a2.16,2.16,0,0,1,0-.36v-5c0-3.49,0-8.49-.12-14.79l.23.23-76.13.16c.17-.17-.39.39.38-.39h0v20.11l-.38-.38,54.25.17,16,.11h.19l-15.93.1-54.52.17h-.39v-20.5h0l.39-.39,76.13.15h.24v.24c0,6.37-.1,11.41-.13,14.91v4.92A1.86,1.86,0,0,1,180.11,642.15Z" fill="#e0e0e0"/>
<path d="M692.11,63.62V58.27c0-3.47,0-8.48-.12-14.79l.23.24-76.13.15.4-.39h0V63.61l-.38-.38,54.25.17,16,.11h.19l-15.93.11-54.52.17h-.38V43.5h0c.79-.77.22-.2.4-.38l76.13.14h.23v.24c0,6.37-.09,11.41-.12,14.93v4.9A.26.26,0,0,1,692.11,63.62Z" fill="#e0e0e0"/>
<path d="M702.44,43.48a2.29,2.29,0,0,1,0-.37V38c0-3.54-.09-8.53-.15-14.67l.28.29-45.87.1c-.34.35.47-.46.38-.39h0V43.47l-.36-.36,32.72.17,9.53.11h3.49a5.75,5.75,0,0,1-.83,0h-2.5l-9.39.11-33,.17h-.37V23.36h0l.39-.39,45.74.11h.28v.26c0,6.26-.12,11.25-.15,14.82v4C702.65,43.14,702.46,43.51,702.44,43.48Z" fill="#e0e0e0"/>
<path d="M147.8,379.3a2.16,2.16,0,0,1,0-.36v-5c0-3.49,0-8.48-.13-14.79l.24.23-76.13.16.39-.39h0v20.12l-.38-.37,54.26.17,16,.11h.19l-15.93.11-54.52.17h-.37V359h0l.39-.39,76.13.15h.23V359c0,6.37-.09,11.4-.12,14.93V379A1.43,1.43,0,0,0,147.8,379.3Z" fill="#e0e0e0"/>
<path d="M158.13,359.16a1.21,1.21,0,0,1,0-.38v-5.11c0-3.52-.1-8.52-.16-14.65l.28.28-45.74.11c-.34.35.47-.47.38-.39h0v20.12l-.36-.36,32.72.18,9.53.09h3.49a5.75,5.75,0,0,1-.83,0h-2.51l-9.39.11-33,.17h-.37v-20.5h0l.39-.39,45.74.11h.28v.28c0,6.26-.12,11.25-.16,14.82v4A3.07,3.07,0,0,1,158.13,359.16Z" fill="#e0e0e0"/>
<path d="M689.13,636a1.09,1.09,0,0,1,0-.36v-5c0-3.49,0-8.48-.13-14.79l.24.24-76.13.16c.17-.18-.4.39.37-.4h0V636l-.39-.38,54.27.18,16,.1h.17l-15.93.11-54.52.18h-.38v-20.3h0l.4-.39,76.13.16h.23v.23c0,6.37-.11,11.41-.14,14.93v4.9A3,3,0,0,1,689.13,636Z" fill="#e0e0e0"/>
<path d="M699.44,615.9v-1.43c0-1,0-2.35-.08-4,0-3.54-.08-8.53-.14-14.66l.27.28-45.75.11.4-.39h0v20.12l-.38-.36,32.72.17,9.53.1h3.49a5.75,5.75,0,0,1-.83,0h-2.49l-9.39.1-33,.18h-.36v-20.5h0c0,.09.74-.74.39-.39l45.74.11h.29v.28c0,6.26-.11,11.25-.14,14.82v4A7.82,7.82,0,0,1,699.44,615.9Z" fill="#e0e0e0"/>
<path d="M484.05,35.14a2.16,2.16,0,0,1,0-.36v-5c0-3.47-.08-8.46-.14-14.77l.25.25L408,15.41c.19-.17-.4.41.41-.41h0V35.2l-.39-.39,54.24.18,16,.12h.19l-15.93.11-54.52.19h-.41V15h0l.41-.41,76.13.16h.25V15c0,6.37-.11,11.41-.14,14.93v4.89C484.29,35.11,484.07,35.16,484.05,35.14Z" fill="#ebebeb"/>
<path d="M794,466.82a2.16,2.16,0,0,1,0-.36v-5c0-3.47,0-8.48-.14-14.77l.25.25-76.13.16.41-.41h0v20.11l-.39-.39,54.25.17,16,.11h.19l-15.93.11L718,467h-.41V446.71h0l.41-.4,76.13.15h.25v.25c0,6.36-.11,11.41-.14,14.93v4.95C794,466.73,794,466.84,794,466.82Z" fill="#ebebeb"/>
</g>
<path d="M690.25,115.37H568.16A15.16,15.16,0,0,0,553,130.53v42.12a15.15,15.15,0,0,0,15.16,15.15h6.66V201L599.6,187.8h90.65a15.15,15.15,0,0,0,15.16-15.15V130.53A15.16,15.16,0,0,0,690.25,115.37Z" fill="#e12127" data-secondary="true"/>
<rect x="197.15" y="128.58" width="278.85" height="536.48" rx="27.64" fill="#e12127" data-secondary="true"/>
<rect x="204.81" y="139.58" width="261.76" height="517.23" rx="24.43" fill="#fff"/>
<path d="M219.69,481.12V364a13.75,13.75,0,0,0-13.75-13.75H87.63A13.75,13.75,0,0,0,73.88,364v78.61a13.76,13.76,0,0,0,13.75,13.75h87.81a20.7,20.7,0,0,1,11.27,3.34Z" fill="#e12127" data-secondary="true"/>
<path d="M172.29,422.64h-3.16a3.27,3.27,0,0,1-3.27-3.28V397.1a19.88,19.88,0,0,0-12.11-18.29A7.75,7.75,0,0,0,154,377a7.57,7.57,0,0,0-15.14,0,7.81,7.81,0,0,0,.16,1.54,19.86,19.86,0,0,0-12.87,18.57V421a2.06,2.06,0,0,1-2.06,2.06h-4.4v6.57l19.55-.05v.05a7.57,7.57,0,1,0,15.13,0v-.09l17.94,0Z" fill="#fff"/>
<rect x="580.91" y="130.75" width="53.84" height="13.36" fill="#fff"/>
<rect x="580.91" y="151.59" width="99.31" height="5.1" fill="#fff"/>
<rect x="580.91" y="165.54" width="65.56" height="5.1" fill="#fff"/>
<rect x="357.51" y="360.5" width="93.56" height="210.75" fill="#ccc"/>
<rect x="229.68" y="283.94" width="77.37" height="37.3" fill="#ccc"/>
<rect x="311.68" y="220.94" width="100.3" height="100.3" fill="#ccc"/>
<rect x="290.31" y="168.23" width="96.38" height="6.35" fill="#e12127" data-secondary="true"/>
<rect x="229.68" y="366.86" width="106.01" height="28.59" fill="#ccc"/>
<rect x="229.68" y="405.91" width="106.01" height="28.59" fill="#ccc"/>
<rect x="229.68" y="442.86" width="106.01" height="28.59" fill="#ccc"/>
<rect x="229.68" y="521.26" width="106.01" height="4.38" fill="#ccc"/>
<rect x="229.68" y="532.57" width="106.01" height="4.38" fill="#ccc"/>
<rect x="229.68" y="543.88" width="106.01" height="4.38" fill="#ccc"/>
<rect x="229.68" y="555.19" width="106.01" height="4.38" fill="#ccc"/>
<rect x="229.68" y="566.5" width="106.01" height="4.38" fill="#ccc"/>
<circle cx="339.7" cy="624.87" r="15.59" fill="#e12127" data-secondary="true"/>
<path d="M520.43,456.44s-8,84.09-5.16,99,98.29,79.39,98.29,79.39l14.52-18.27s-22.82-31.64-43.37-50-26.14-22.1-26.14-22.1l1.74-9.2,11.36-70.16Z" fill="#f9b499"/>
<path d="M575.36,462.2,577,544.74,584.92,660H605s9.08-53.89,8.65-82.12-.16-38.52,0-42,9.91-41.33,12.07-69.59-12.07-35.68-12.07-35.68Z" fill="#f9b499"/>
<path d="M582.36,651.37v1.52s-26.58-7-26.58,15.39h52.08L607.15,651A29.81,29.81,0,0,1,582.36,651.37Z" fill="#e9e5da" data-primary="true"/>
<path d="M550.76,203.73a22.17,22.17,0,0,1,10.35,17.73c.12,3.45-.38,7.48,2.16,9.83s6.87,1.78,9.25,4.13c2.86,2.85,1.31,7.76,2.66,11.57a8,8,0,0,0,9.1,4.92,31,31,0,0,1-14.58,8.42l-4.92-5a5.73,5.73,0,0,1,.41,7,13.05,13.05,0,0,1-6,4.55,39.56,39.56,0,0,1-35.08-1.63" fill="#e12127" data-secondary="true"/>
<path d="M489.79,241.45c.55-2.76,1.71-5.34,2-8.11.56-6-3-12.17-.8-17.73,1.58-4,5.64-6.27,9.54-8s8.12-3.27,10.79-6.59c2-2.42,2.87-5.57,4.83-8,2.75-3.48,7.29-5.06,11.68-5.85a26.55,26.55,0,0,1,13.53.64,14.61,14.61,0,0,1,9.37,9.28c.6,2.15.6,4.47,1.54,6.49,1,2.23,3,3.83,4.42,5.85a11.74,11.74,0,0,1-1.31,14.29l-26.54,43.79c-6.26,3.22-22.43,2.05-28-2.19S488.39,248.34,489.79,241.45Z" fill="#e12127" data-secondary="true"/>
<path d="M554,218.73c-2.34-9-10.53-18.95-19.4-16.24l-26.88,12.63a5.5,5.5,0,0,0-3.73,6.32l12.58,66.67h0a.39.39,0,0,0-.47.28.46.46,0,0,0,.08.34c3.92,4.49,22.24,24,37.83,15.59,3.49-1.87-1.87-12.91-1.93-17.22l-1.74-10.84c-1-5.5-1.45-7.77-1.38-7.71s11.24-4.13,10.72-19.8C559.33,241,556.55,228.71,554,218.73Z" fill="#f9b499"/>
<path d="M548.88,268.55a39.36,39.36,0,0,1-21.34-1.49s7.17,9.63,22,5.3Z" fill="#f4a992"/>
<path d="M501.75,218c1.17-2.33,3.57-3.74,5.89-5a140.92,140.92,0,0,1,31.44-12c1.64,2.11.72,5.35-1.17,7.25s-4.5,2.86-6.88,4.12-4.77,3-5.5,5.5.5,5.71-.16,8.49c-1.12,4.78-7.35,7-8.44,11.75-.82,3.62,1.61,7.08,2.54,10.66A13.24,13.24,0,0,1,510,265a12.74,12.74,0,0,1-1.74.34l-6.88-39.15C501,223.43,500.52,220.5,501.75,218Z" fill="#e12127" data-secondary="true"/>
<path d="M479.11,254.27c1.87-2.11,4.27-4,4.8-6.77.75-4-2.88-8.25-1.28-12,1.46-3.42,6.88-3.89,8.18-7.37,1-2.75-.75-4.82-.51-7.13s3.22-4.66,5.51-4.66l20.93,23.93c2.67,8.53,4.87,13,3.59,18.31a42,42,0,0,0-1.79,8.79c-.06,3,1.08,6.26,3.69,7.73-10.62,2.08-21.32-2.38-31.24-6.74l-10.49-4.6a7.28,7.28,0,0,1-3-1.94C475.86,259.63,477.25,256.36,479.11,254.27Z" fill="#e12127" data-secondary="true"/>
<path d="M490.47,265.81a5.08,5.08,0,0,0,1.17.08,10.11,10.11,0,0,0,3.31-.62,10.3,10.3,0,0,0,4.36-3,10.19,10.19,0,0,0,2.36-6.62,10.65,10.65,0,0,0-.83-4.13,17.17,17.17,0,0,0-2.45-3.75,15.69,15.69,0,0,1-2.53-3.91,5.39,5.39,0,0,1,0-4.61c.83-1.37,2.6-1.95,4.21-2.82a4.94,4.94,0,0,0,2.09-2,4.73,4.73,0,0,0,.41-2.89,30.41,30.41,0,0,0-1.85-5.5,6,6,0,0,1-.33-2.76,3.72,3.72,0,0,1,1.29-2.35,10.71,10.71,0,0,1,5.25-2.08,11.61,11.61,0,0,0,5.34-2.26,10.43,10.43,0,0,0,3.32-4.54,17.35,17.35,0,0,0,.81-5.3,22.75,22.75,0,0,1,.49-4.94,10.89,10.89,0,0,1,2.08-4.13,12.39,12.39,0,0,1,7-4.2,12.24,12.24,0,0,1,6.8.61,14.66,14.66,0,0,1,4.5,2.67,19.8,19.8,0,0,1,3,3.36.46.46,0,0,0-.14-.26c-.14-.17-.23-.43-.45-.74a14.55,14.55,0,0,0-6.76-5.36,12.72,12.72,0,0,0-7-.73,12.93,12.93,0,0,0-7.35,4.32,11.16,11.16,0,0,0-2.21,4.3,23.71,23.71,0,0,0-.54,5,16.75,16.75,0,0,1-.8,5.12,9.89,9.89,0,0,1-3.12,4.27,11.17,11.17,0,0,1-5.09,2.13,11.29,11.29,0,0,0-5.5,2.23,4.54,4.54,0,0,0-1.5,2.75,6.73,6.73,0,0,0,.36,3,32.43,32.43,0,0,1,1.85,5.34,4.24,4.24,0,0,1-.34,2.53,4.55,4.55,0,0,1-1.84,1.72c-.77.43-1.6.76-2.4,1.2a5.26,5.26,0,0,0-2,1.84,5.93,5.93,0,0,0-.07,5.12,16.54,16.54,0,0,0,2.64,4,16.65,16.65,0,0,1,2.42,3.63,10.16,10.16,0,0,1,.83,3.88,9.93,9.93,0,0,1-2.17,6.39,10.17,10.17,0,0,1-4.2,3A11.89,11.89,0,0,1,490.47,265.81Z" opacity="0.2"/>
<path d="M474,249a2.08,2.08,0,0,0-.26.91,3.94,3.94,0,0,0,.77,2.61,4.06,4.06,0,0,0,1.54,1.28,4.22,4.22,0,0,0,2.35.35,5.39,5.39,0,0,0,4.36-3.53,7.08,7.08,0,0,0,.39-3.35,10.18,10.18,0,0,0-1.16-3.46c-1.13-2.22-2.93-4.3-3.27-7a4.94,4.94,0,0,1,.82-3.84,5.51,5.51,0,0,1,3.76-1.66,13.37,13.37,0,0,0,4.58-1,4,4,0,0,0,1.73-1.83,5.76,5.76,0,0,0,.51-2.45,19.07,19.07,0,0,0-.93-4.73,10.32,10.32,0,0,1-.28-4.42,11.19,11.19,0,0,1,4.24-7.12,15.74,15.74,0,0,1,7.25-2.56,22.11,22.11,0,0,0,6.66-1.86,14.15,14.15,0,0,0,4.45-3.58,13.35,13.35,0,0,0,2.24-3.68,9.94,9.94,0,0,0,.9-3.55,19.85,19.85,0,0,1-1.12,3.45,14.25,14.25,0,0,1-2.28,3.55,13.91,13.91,0,0,1-4.39,3.41,21.59,21.59,0,0,1-6.56,1.74,16.3,16.3,0,0,0-7.5,2.61,11.67,11.67,0,0,0-4.49,7.5,10.78,10.78,0,0,0,.26,4.69,19.21,19.21,0,0,1,.91,4.56,4,4,0,0,1-1.92,3.75,13,13,0,0,1-4.36,1,6,6,0,0,0-4.12,1.9,5.6,5.6,0,0,0-.93,4.28,10.91,10.91,0,0,0,1.45,3.89c.66,1.15,1.37,2.21,1.94,3.29a9.51,9.51,0,0,1,1.14,3.27,6.88,6.88,0,0,1-.32,3.15,5,5,0,0,1-4,3.33,3.9,3.9,0,0,1-4.45-3.24,3.44,3.44,0,0,1,0-.64A5,5,0,0,1,474,249Z" fill="#e12127" data-secondary="true"/>
<path d="M587.82,242.35a4.3,4.3,0,0,1,.29,2.76,3.76,3.76,0,0,1-2,2.51A3.94,3.94,0,0,1,582,247a3.55,3.55,0,0,1-1.16-2.14,7.07,7.07,0,0,1,.09-2.75c.36-1.87,1.29-4,.84-6.33a8.76,8.76,0,0,0-4-5.83,10.42,10.42,0,0,0-3.55-1.38,15.29,15.29,0,0,0-3.88-.11,19.68,19.68,0,0,1-3.76,0,4.91,4.91,0,0,1-3.09-1.46,6.21,6.21,0,0,1-1.38-3.05,12.07,12.07,0,0,1-.11-3.34,24.87,24.87,0,0,0,.23-6.39,9.4,9.4,0,0,0-2.51-5,12.55,12.55,0,0,0-3.83-2.56,21.31,21.31,0,0,1-3-1.61,7.14,7.14,0,0,1-2-2.05v.18a4.11,4.11,0,0,0,.27.51,6.21,6.21,0,0,0,1.54,1.57,22.35,22.35,0,0,0,3,1.72,12.61,12.61,0,0,1,3.68,2.54,9.26,9.26,0,0,1,2.32,4.78,25.1,25.1,0,0,1-.3,6.24,12.9,12.9,0,0,0,.09,3.51,6.56,6.56,0,0,0,1.55,3.35,5.44,5.44,0,0,0,3.46,1.67,21,21,0,0,0,3.88,0,14.53,14.53,0,0,1,3.84.12,9.72,9.72,0,0,1,3.33,1.28,8.3,8.3,0,0,1,3.74,5.41c.43,2.14-.43,4.13-.8,6.13a8.18,8.18,0,0,0,0,3,4,4,0,0,0,1.38,2.38,4.26,4.26,0,0,0,4.5.61,4,4,0,0,0,2-2.75,3.79,3.79,0,0,0-.15-2.21A2.42,2.42,0,0,0,587.82,242.35Z" fill="#263238"/>
<path d="M609.69,392.79s11,17.58,16.07,32.56,3,51.63,3,51.63l-53.45,5.24-1.64-14.41L572,481.9l-56.77,2.35,4.13-39.89-2.29-30.48Z" fill="#e12127" data-secondary="true"/>
<path d="M494.28,292.23l21-9.23s11.89,11,25.66,6.88c8-2.46,9.79-11,9.79-11l24.55,1.37L586,326.87l.35,26.62,27.38,45.93s-33.41,34.87-99.77,23.74l-4.12-52s-10.21-27.84-10.68-37.14,0-20.41,0-20.41Z" fill="#e9e5da" data-primary="true"/>
<g opacity="0.3">
<path d="M595.89,369.62a9.28,9.28,0,0,1-9.54-1.37,24.82,24.82,0,0,1-5.5-7.95l-10.13-19.82a53.29,53.29,0,0,0-36,1.94,12.35,12.35,0,0,0-4.67,3c-1.67,2-2.07,4.72-2.39,7.29-.77,6.25-1.37,12.62-3.86,18.42s-7,11.09-13,12.77l-3.26-28.16,9.19-22.38,44.27-8.26L579.25,332l12.38,30.27Z"/>
</g>
<path d="M496.82,291.56s-10.45,1.11-14.61,14.92c-3.06,10.14-5.42,29.61-5.42,29.61l25.7,1.37V312.7Z" fill="#e9e5da" data-primary="true"/>
<path d="M575.27,280.22a20.09,20.09,0,0,1,13.32,5c5.58,5.32,17.76,25.68,17.76,25.68l-24.76,8.38-8-24.68Z" fill="#e9e5da" data-primary="true"/>
<path d="M527.46,285.84l3.46,37.25a2.36,2.36,0,0,0,2.58,2.09l23.93-1.82a2.4,2.4,0,0,0,2.27-2.49l-2.27-39.15a2.34,2.34,0,0,0-2.51-2.17l-.24,0-25.13,3.71A2.4,2.4,0,0,0,527.46,285.84Z" fill="#e12127" data-secondary="true"/>
<path d="M541.65,303.49c-.63.16-14.12,5-14.12,5l-17.89,13.54-7.09,15.42,13.08,15.94,2.6-16.26a25.86,25.86,0,0,0,9.24-.38c4.13-1.14,17.46-4.55,17.46-4.55l6.27-4.94s1.6-3.91,1.38-4.87a1.6,1.6,0,0,0-1.81-1.35,1.65,1.65,0,0,0-.86.41c-1.28,1-11,3-13.55,2.44,0,0,14-3.52,15.39-6.08s.51-4.21-1.72-3.81-10.11,3-12.57,3.26-5.5.78-6.3-.28.82-2.35.82-2.35l2.29-2.42s10-3.61,10.22-5.86a2.55,2.55,0,0,0-2.14-2.9A2.73,2.73,0,0,0,541.65,303.49Z" fill="#f9b499"/>
<path d="M546.26,301.9s12.16-.27,13,.32S578.2,317.7,578.2,317.7l4.23,2.66-7.16,13.76-2.07-.76-14.57-4.55a21.79,21.79,0,0,0-4.47-.56s-13.76.37-15-1-.71-1.84.24-2.26a82.64,82.64,0,0,1,11-1,28.59,28.59,0,0,0,5.35-1s-5.8-.25-7.14-.46-14.33-.65-14.51-2.83,1.22-3.26,9.42-2.62a58.13,58.13,0,0,0,13.57-.33L538.77,314s-7.36-.91-5.51-3.23,17.54-1,17.54-1l7,1.21-2.5-3.36s-9.88-1-11.24-1.68c-1.69-.85-2.08-1.84-1.13-3S546.26,301.9,546.26,301.9Z" fill="#f9b499"/>
<path d="M604.22,311.74l-20.17,6.88,1,4.7-3.94-3.82-5.78,14.69s4.55,8.51,7,13.22c6.61,12.61,16.14,26.34,24.39,24.07,9.91-2.75,12.89-14.07,11.39-21.49C616.69,343.27,604.22,311.74,604.22,311.74Z" fill="#f9b499"/>
<path d="M478.32,336.17l18.53,1.13,5.64.15,3.65-8,10.78,13.76S515.64,352.75,515,358c-1.77,14.13-5.9,30.27-14.43,31.09-10.22.92-19.66-9.24-20.84-16.7C478.64,365.61,478.32,336.17,478.32,336.17Z" fill="#f9b499"/>
<path d="M611.11,633.63l1.29,1s-22.75,11.07-3.78,32l32.78-43.78-15-10.32A31.33,31.33,0,0,1,611.11,633.63Z" fill="#e9e5da" data-primary="true"/>
<path d="M611.11,633.63l1.29,1s-22.75,11.07-3.78,32l32.78-43.78-15-10.32A31.33,31.33,0,0,1,611.11,633.63Z" opacity="0.2"/>
<rect x="103.69" y="217.08" width="232" height="72.43" rx="11.02" fill="#e12127" data-secondary="true"/>
<rect x="131.59" y="232.46" width="53.84" height="13.36" fill="#fff"/>
<rect x="131.59" y="253.29" width="165.86" height="5.1" fill="#fff"/>
<rect x="131.59" y="267.25" width="65.56" height="5.1" fill="#fff"/>
<polygon points="125.5 302.71 125.5 283.94 157.57 285.63 125.5 302.71" fill="#e12127" data-secondary="true"/>
<rect x="273.59" y="402.13" width="235.82" height="70.75" rx="9.43" fill="#e12127" data-secondary="true"/>
<polygon points="296.78 487.02 296.78 468.74 330.98 468.74 296.78 487.02" fill="#e12127" data-secondary="true"/>
<rect x="303.27" y="415.68" width="54.24" height="11.79" fill="#fff"/>
<rect x="303.27" y="436.32" width="166.84" height="4.72" fill="#fff"/>
<rect x="303.27" y="450.47" width="166.84" height="4.72" fill="#fff"/>
</svg>